<?xml version="1.0" encoding="utf-8"?>
<!-- Generator: Adobe Illustrator 18.0.0, SVG Export Plug-In . SVG Version: 6.00 Build 0)  -->
<!DOCTYPE svg PUBLIC "-//W3C//DTD SVG 1.1//EN" "http://www.w3.org/Graphics/SVG/1.1/DTD/svg11.dtd">
<svg version="1.1" id="Isolation_Mode" xmlns="http://www.w3.org/2000/svg" xmlns:xlink="http://www.w3.org/1999/xlink" x="0px"
	 y="0px" viewBox="763.8 -0.4 1078.4 1080" enable-background="new 763.8 -0.4 1078.4 1080" xml:space="preserve">
<g>
	<path fill="#00A5FF" d="M873.9,614.7c-0.5-2.7-1.1-5.4-1.1-7.5l-4.3-34.9c-0.5-9.7-0.5-16.1-0.5-16.1v-0.5l0.5-0.5
		c0,0,9.7-8.6,19.3-16.1c4.8-3.8,9.7-7.5,13.4-10.2c0,0,3.8-2.7,5.9-3.8l1.6-18.8c0-2.1,0.5-4.3,0.5-6.4c0-4.3,0.5-8.6,1.1-13.4
		l5.9-33.8c0.5-2.7,1.1-4.8,1.6-7c0.5-1.1,0.5-2.7,1.1-3.8l5.4-19.3c1.6-6.4,3.2-10.7,4.3-13.4l2.1-4.8l3.2,1.1l-2.1,4.8
		c-1.1,2.7-2.7,7-4.3,13.4l-5.4,19.3c-0.5,1.1-0.5,2.7-1.1,3.8c-0.5,2.1-1.1,4.3-1.6,7l-5.9,33.8c-0.5,4.3-1.1,9.1-1.1,12.9
		c0,2.1-0.5,4.3-0.5,6.4l-1.6,20.4h-1.1c-0.5,0.5-3.2,2.1-5.9,4.3c-3.8,2.7-8.6,6.4-13.4,10.2c-8,6.4-16.6,13.4-18.8,15.6
		c0,2.1,0,7.5,0.5,15l4.3,34.3c0.5,6.4,2.1,12.3,3.2,18.2l7,30.6c0.5,0.5,2.1,1.6,4.3,2.7l10.7,6.4l15.6,9.1l4.8,14.5
		c2.1,4.8,4.8,11.3,7.5,17.2c1.6,3.8,3.8,7.5,5.4,11.3c3.2,8,7.5,15.6,11.8,22.5c1.1,2.1,2.1,3.8,3.2,5.4l7.5,12.9l-1.1,4.8
		c-0.5,2.1-1.1,4.3-1.1,6.4l-1.1,10.7l9.7,13.4c1.1,1.6,2.1,3.2,3.2,4.8c2.1,3.2,4.3,6.4,7,9.1l13.4,15c1.6,1.6,3.2,3.8,4.8,5.4
		c2.7,3.2,5.4,6.4,8.6,9.1l25.8,24.1l0.5,5.4l1.6,9.7l2.7,13.9l17.7,13.9l19.9,12.9c2.1,1.1,4.3,2.7,6.4,3.8
		c5.4,3.2,11.3,7,17.2,9.7l5.4,2.7c15,7.5,29,15,40.8,18.8l21.5,8c1.1-0.5,2.7-1.1,4.8-2.1l12.9-5.9c9.1-4.3,17.7-8.6,17.7-8.6
		l0.5-0.5l12.9,3.8c4.8,1.1,10.7,2.1,17.2,3.2c3.8,0.5,7,1.1,10.7,2.1c1.6,0.5,3.8,0.5,5.4,1.1c3.2,0.5,6.4,1.1,9.7,1.6l25.8,2.1
		l13.4-10.7l13.4-12.9h11.3c2.1,0,4.3,0,7,0c4.8,0,10.7,0,16.1-1.1l33.3-4.3l0.5,3.2l-33.3,4.3c-5.4,1.1-11.3,1.1-16.6,1.1
		c-2.7,0-4.8,0-7,0h-10.2l-12.9,12.3l-13.4,11.8l-26.8-2.1c-3.2-0.5-6.4-1.1-9.7-1.6c-1.6-0.5-3.8-0.5-5.4-1.1
		c-3.8-0.5-7.5-1.1-10.7-2.1c-6.4-1.1-12.3-2.1-17.2-3.2l-11.8-3.2c-2.1,1.1-9.7,4.8-17.2,8l-12.9,5.9c-3.8,1.6-5.9,2.1-5.9,2.1
		h-0.5l-22-8.6c-11.8-3.8-26.3-11.3-41.3-18.8l-5.4-2.7c-6.4-2.7-11.8-6.4-17.7-10.2c-2.1-1.1-4.3-2.7-6.4-3.8l-20.4-12.9
		l-19.3-14.5l-4.8-25.2l-0.5-4.3l-24.7-23.1c-3.2-2.7-5.9-6.4-8.6-9.7c-1.6-1.6-3.2-3.8-4.8-5.4l-13.4-15c-2.7-3.2-5.4-6.4-7.5-9.7
		c-1.1-1.6-2.1-3.2-3.2-4.3l-10.3-14.2l1.6-11.8c0-2.1,0.5-4.8,1.1-7l0.5-3.8l-7-11.8c-1.1-1.6-2.1-3.2-3.2-5.4
		c-3.8-7-8.6-14.5-11.8-23.1c-1.6-3.8-3.2-7.5-5.4-11.3c-3.2-6.4-5.9-12.3-7.5-17.7l-4.3-12.7l-14.5-8.6l-10.7-6.4
		c-3.2-1.6-4.8-3.2-4.8-3.2l-0.5-0.5l-7.5-32.2C875.5,622.2,874.4,618.4,873.9,614.7z"/>
	<path fill="#00A5FF" d="M1371.7,926.6l38.6-8.6c4.3-1.1,8.6-2.7,13.4-4.3c2.7-1.1,5.4-2.1,8-2.7c2.7-1.1,5.4-1.6,8-2.7
		c4.8-1.6,9.1-2.7,13.4-4.8l31.1-13.9l5.4-3.2l0.5,0.5c0,0,10.7,4.8,22.5,9.7c9.7,3.8,19.3,7.5,23.1,8.6l3.2-1.6
		c1.6-1.1,3.2-2.1,5.4-3.8c1.1-1.1,2.7-1.6,3.8-2.7c2.7-2.1,5.4-3.8,8.6-6.4c5.9-4.3,12.9-9.1,19.3-14.5l26.3-23.1
		c2.7-2.1,4.3-3.8,5.9-5.9c1.1-1.1,1.6-1.6,2.1-2.1l2.7-2.7l0.5-17.2v-17.7l0.5-0.5c0,0,1.1-1.1,2.1-2.7l6.4-8.6
		c1.6-2.1,3.8-4.8,5.9-8c4.3-5.4,8.6-11.3,12.9-17.2l16.6-26.8c1.6-2.1,2.7-4.3,3.8-6.4c0.5-1.1,1.1-2.1,1.1-2.7l2.1-4.3l11.3-4.3
		l10.2-4.3l1.6-3.8c0.5-0.5,0.5-1.6,1.1-2.1c1.1-2.1,2.7-5.4,3.8-9.1c1.1-3.2,2.7-7,4.3-10.7c2.7-7.5,6.4-16.1,9.1-24.7l10.2-35.9
		c1.1-3.2,1.1-5.9,1.6-8.6c0-1.1,0.5-2.7,0.5-3.8l1.1-5.4l11.8-9.7l11.3-9.7c0-1.1,0.5-2.7,1.1-5.4l3.2-40.8c0-5.4,0-11.3,0-17.7
		c0-3.2,0-6.4,0-9.7c0-15-1.6-30-3.2-41.8c-0.5-3.2-0.5-5.9-1.1-8.6c-1.1-11.3-2.7-19.3-3.8-22c-1.6-1.6-8.6-7-15.6-11.8
		c-6.4-4.8-13.4-9.7-15-10.7h-1.1l-0.5-1.6c0-1.1-1.1-5.9-3.8-12.3l-9.1-27.4c-1.1-4.3-3.2-8-4.8-11.8l-11.8-25.2
		c-2.7-1.1-9.1-3.8-16.6-5.9l-20.9-6.4l2.1-1.1c-4.3-7.5-33.3-50.3-37-52.5l0.5-1.1l-1.1-1.6h2.1c3.2,1.6,34.9,46.7,39.2,55.2
		l16.6,5.4c7.5,2.1,14.5,5.4,16.6,6.4h0.5l12.3,27.4c1.6,3.8,3.8,8,4.8,12.3l9.1,26.8c2.1,5.9,3.2,10.2,3.8,11.8
		c2.1,1.1,8.6,5.9,15.6,10.7c8,5.9,16.1,11.8,16.1,12.3l1.1,1.1l-0.5,0.5c0.5,3.2,2.7,11.3,3.8,22.5c0.5,2.7,0.5,5.4,1.1,8.6
		c1.6,12.3,3.8,27.4,3.2,42.4c0,3.2,0,6.4,0,9.1c0,6.4,0.5,12.3,0,17.7l-3.2,40.8c-0.5,6.4-1.1,7.5-1.6,7.5l-11.3,9.7l-11.3,9.1
		l-0.5,4.3c0,1.1-0.5,2.1-0.5,3.2c-0.5,2.7-1.1,5.4-1.6,9.1l-10.2,36.5c-3.2,8.6-6.4,17.2-9.7,24.7c-1.6,3.8-2.7,7.5-4.3,10.7
		c-1.1,3.8-2.7,7-4.3,9.1c-0.5,0.5-0.5,1.6-1.1,2.1l-2.7,4.8l-20.9,8l-1.6,3.2c-0.5,0.5-1.1,1.6-1.1,2.7c-1.1,2.1-2.1,4.3-3.8,7
		l-16.6,26.8c-4.3,6.4-9.1,12.3-12.9,17.7c-2.1,2.7-4.3,5.4-5.9,8l-6.4,8c-1.1,1.1-1.6,2.1-2.1,2.7v16.6l-0.5,18.2l-3.2,3.8
		c-0.5,0.5-1.6,1.6-2.1,2.1c-1.6,1.6-3.8,3.8-5.9,5.9l-26.3,23.1c-6.4,5.4-13.4,10.2-19.9,14.5c-3.2,2.1-5.9,4.3-8.6,6.4
		c-1.6,1.1-2.7,2.1-3.8,2.7c-2.1,1.6-4.3,2.7-5.4,3.8l-4.3,2.7h-0.5c-3.2-1.1-13.4-4.8-23.6-9.1c-9.7-3.8-18.8-8-21.5-9.1l-3.8,2.1
		l-31.1,13.9c-4.3,2.1-9.1,3.8-13.9,5.4c-2.7,1.1-5.4,1.6-8,2.7c-2.7,1.1-5.4,2.1-8.6,2.7c-4.3,1.6-9.1,3.2-13.4,4.3l-38.6,8.6
		L1371.7,926.6z"/>
	<path fill="#00A5FF" d="M847.6,619c-6.4-35.9-7.5-67-7.5-89.5c1.6-42.4,7.5-80.4,15.6-108.8c1.6-4.8,2.7-9.1,3.8-12.9
		c1.6-7,3.2-12.3,4.8-16.6l3.8-10.2l6.4,2.7l-3.8,10.3c-1.1,3.8-2.7,9.7-4.8,16.1c-1.1,3.8-2.1,8.6-3.8,12.9
		c-8,27.4-13.4,65.4-15.6,106.7c-0.5,34.9,3.2,89,22.5,150.6c17.7,55.2,46.7,107.7,84.1,152.2c37.5,44.6,84.1,82.5,135.6,109.3
		c47.7,25.2,97.5,41.8,144.2,47.7c8.6,2.1,17.2,2.7,25.2,3.2l7,0.5c3.8,0,7.5,0.5,10.7,1.1c6.4,0.5,12.3,1.1,17.7,1.1l25.8-0.5
		c2.7,0,5.4,0,7.5,0c4.8,0,9.7,0,13.4-1.1l41.3-5.4l1.1,7l-41.3,5.4c-4.3,1.1-9.1,1.1-14.5,1.1c-2.7,0-4.8,0-7.5,0l-25.8,0.5
		c-5.9,0-12.3-0.5-18.8-1.1c-3.8-0.5-7-0.5-10.7-1.1l-7-0.5c-8.6-0.5-17.2-1.1-25.8-3.2c-47.7-6.4-98.1-23.1-146.4-48.8
		c-51.9-27.9-99.7-65.9-137.8-111s-68-98.6-85.7-154.9C856.1,660.2,850.8,638.7,847.6,619z"/>
	<path fill="#00A5FF" d="M868,381.1l11.8-30l19.9-39.2c1.6-2.7,3.2-4.8,4.8-7.5l18.2-29c3.8-5.4,8-10.7,12.3-16.6
		c2.7-3.2,4.8-6.4,7.5-9.7c23.1-28.4,61.1-69.1,115.3-102.9c49.3-31.1,106.7-53.6,165-63.7c58.4-10.2,120.1-9.1,176.8,3.2
		c62.1,13.4,112.6,38.6,143.7,57.3c3.8,2.1,7,4.3,10.2,6.4c5.9,3.8,11.8,7.5,17.2,11.3l27.4,20.9c2.1,1.6,4.8,3.8,7,5.4l33.8,31.7
		l19.9,22.5l-5.4,4.8l-20.9-24.1l-31.7-29.5c-2.1-1.6-4.3-3.2-6.4-4.8l-26.8-20.9c-5.4-3.8-10.7-7-16.6-10.7
		c-3.2-2.1-7-4.3-10.2-6.4c-30.6-18.2-79.8-43.5-141.5-56.2c-56.3-12.3-116.9-13.4-174.2-3.2c-57.8,10.2-114.2,32.2-162.4,62.7
		c-53,33.3-91.1,73.4-113.6,101.3c-2.7,3.2-4.8,6.4-7.5,9.7c-4.3,5.4-8.6,10.7-12.3,16.1l-18.2,29c-1.6,2.1-3.2,4.8-4.3,7
		l-20.4,40.2l-10.7,27.9L868,381.1z"/>
	<path fill="#00A5FF" d="M1382.4,988.8l40.2-9.1c4.3-0.5,8.6-2.1,13.4-3.8c2.1-1.1,4.8-1.6,7.5-2.7l24.1-8c5.4-1.6,10.7-4.3,16.6-7
		c3.2-1.6,6.4-3.2,10.2-4.8l6.4-2.7c7.5-3.2,15-7,22-11.3c42.4-22,83.6-54.6,119.5-94.9c39.2-43.5,70.2-94.9,89.5-149.5
		c19.9-54.6,29.5-114.2,26.8-172c-2.7-64.8-18.2-116.9-30.6-149c-16.1-38.1-33.8-71.8-50.9-94.9c-2.7-3.8-5.4-7.5-8-11.3
		c-3.8-5.4-7.5-10.2-10.2-13.4l-7-8l5.4-4.8l7,8c2.7,3.8,6.4,8.6,10.2,13.9c2.1,3.2,4.8,7,8,10.7c17.2,23.6,35.9,57.8,51.9,96.5
		c12.9,33.3,28.4,85.7,31.1,151.6c2.7,58.9-7,119.5-27.4,174.7c-19.9,55.2-51.4,107.7-91.1,151.6c-36.5,40.8-78.2,73.9-121.2,95.9
		c-7.5,4.8-15,8-23.1,11.8l-6.4,2.7c-3.2,1.6-7,3.2-9.7,4.3c-5.9,2.7-11.3,5.4-17.2,7.5l-24.1,8c-2.7,0.5-4.8,1.6-7,2.7
		c-4.8,1.6-9.7,3.2-13.9,4.3l-40.2,9.1L1382.4,988.8z"/>
	<polygon fill="#00A5FF" points="1359.3,955 1358.8,950.7 1376,948.5 1376.5,952.8 	"/>
	<path fill="#00A5FF" d="M1294.1,959.3V955c1.1,0,1.6,0,2.7,0l21.5-0.5v4.3l-21.5,0.5C1296.2,959.3,1295.2,959.3,1294.1,959.3z
		 M1335.2,958.2l-0.5-4.3l8-1.1l0.5,4.3L1335.2,958.2z"/>
	<path fill="#00A5FF" d="M895.3,636.7l4.3-1.1l1.1,4.3c0.5,1.1,0.5,2.7,1.1,4.8c0.5,3.2,1.6,7.5,3.2,11.8c0.5,1.1,0.5,1.6,1.1,2.7
		l-4.3,1.6c-0.5-1.1-0.5-1.6-1.1-2.7c-1.6-4.8-2.7-9.1-3.2-12.3c-0.5-1.6-0.5-3.2-1.1-4.3L895.3,636.7z M906.6,676.3l4.3-1.6
		c1.1,2.7,1.6,4.8,2.7,7.5l-4.3,1.6C908.2,681.1,907.7,678.4,906.6,676.3z M915.1,699.3l3.8-1.6c2.1,5.4,4.8,10.7,7,15.6
		c2.1,4.3,4.3,9.1,6.4,13.9l-3.8,2.1c-2.1-4.8-4.8-9.1-6.4-13.9C919.4,710.1,917.2,704.7,915.1,699.3z M934.4,739.5l3.8-2.1
		c3.8,7,8,13.9,12.3,20.9l-3.8,2.1C942.4,754,938.1,747,934.4,739.5z M955.8,774.9l3.8-2.1c1.6,2.1,3.2,4.3,4.8,6.4l-3.8,2.7
		C959.1,779.2,957.4,777,955.8,774.9z M970.3,794.7l3.2-2.7c6.4,8.6,13.4,17.2,20.4,25.2l-3.2,2.7
		C983.7,811.9,976.8,803.3,970.3,794.7z M999.3,829.1l3.2-3.2c5.4,5.9,11.3,11.8,17.2,17.2l-2.7,3.2
		C1010.5,840.8,1004.7,834.9,999.3,829.1z M1028.7,856.9l2.7-3.2c1.6,1.6,3.8,3.2,5.4,4.8l0.5,0.5l-2.7,3.2l-0.5-0.5
		C1032.5,860.1,1030.9,858.5,1028.7,856.9z M1048,872.4l2.7-3.2c9.1,7,17.2,13.4,26.3,18.8l-2.1,3.8
		C1065.7,885.9,1057.1,879.4,1048,872.4z M1085,897.7l2.1-3.8l10.7,7l10.2,4.8l-2.1,3.8l-12.3-6.4L1085,897.7z M1120.9,917.5
		l2.1-3.8c2.1,1.1,4.8,2.7,7,3.8l-1.6,3.8C1125.7,919.7,1123.6,918.6,1120.9,917.5z M1143.4,927.2l1.6-3.8c2.7,1.1,5.4,2.1,8,3.2
		c2.7,1.1,5.9,2.1,8.6,3.2l10.2,3.8c1.1,0.5,2.7,1.1,4.3,1.1l-1.1,4.3c-1.6-0.5-2.7-1.1-4.3-1.1l-10.2-3.8c-2.7-1.1-5.4-2.1-8.6-3.2
		C1148.8,929.3,1146.1,928.2,1143.4,927.2z M1185.8,942.1l1.1-4.3l12.9,3.8c3.2,1.1,6.4,2.1,10.7,2.7l-1.1,4.3
		c-3.8-1.1-7.5-1.6-10.7-2.7L1185.8,942.1z M1225.4,951.7l0.5-4.3c2.7,0.5,4.8,1.1,7,1.1h1.1l-0.5,4.3h-1.1
		C1230.2,952.3,1228.1,952.3,1225.4,951.7z M1249.5,956l0.5-4.3c3.8,0.5,6.4,0.5,9.1,1.1l23.1,1.6l-0.5,4.3l-23.1-1.6
		C1256.5,956.6,1253.3,956.6,1249.5,956z"/>
	<polygon fill="#00A5FF" points="889.4,612.5 893.7,611.5 897.5,628.1 893.7,629.2 	"/>
	<polygon fill="#00A5FF" points="889.4,612.5 887.3,595.4 891.6,594.8 893.7,612 	"/>
	<path fill="#00A5FF" d="M885.7,579.3l-1.1-8l4.3-0.5l1.1,8L885.7,579.3z M884,554.6l-0.5-21.5c0-1.1,0-2.1,0-2.7h4.3
		c0,1.1,0,1.6,0,2.7l0.5,21.5H884z"/>
	<path fill="#00A5FF" d="M884,518.8l1.6-23.1c0-2.7,0.5-5.9,1.1-9.7l4.3,0.5c-0.5,3.8-0.5,6.4-1.1,9.1l-1.6,23.1L884,518.8z
		 M889.4,470v-1.1c0.5-2.1,1.1-4.8,1.1-7l4.3,0.5c-0.5,2.7-1.1,4.8-1.1,7v1.1L889.4,470z M893.7,445.9c1.1-3.8,1.6-7.5,2.7-10.7
		l3.8-12.9l4.3,1.1l-3.8,12.9c-1.1,3.2-2.1,6.4-2.7,10.7L893.7,445.9z M903.4,410.6c0.5-1.6,1.1-2.7,1.1-4.3l3.8-10.2
		c1.1-2.7,2.1-5.4,3.2-8.6c1.1-2.7,2.1-5.4,3.2-8l3.8,1.6c-1.1,2.7-2.1,5.4-3.2,8c-1.1,2.7-2.1,5.9-3.2,8.6l-3.2,9.7
		c-0.5,1.1-1.1,2.7-1.1,4.3L903.4,410.6z M921.5,364.4c1.1-2.7,2.1-4.8,3.8-7.5l3.8,2.1c-1.1,2.1-2.7,4.8-3.8,7L921.5,364.4z
		 M932.2,342.5l6.4-12.3l5.4-9.1l3.8,2.1l-7,10.7L936,344L932.2,342.5z M951,310.9c5.4-9.1,11.8-17.7,18.8-26.8l3.2,2.7
		c-7,9.1-13.4,17.2-18.8,26.3L951,310.9z M980,271.2l0.5-0.5c1.6-2.1,3.2-3.8,4.8-5.9l3.2,2.7c-1.6,1.6-3.2,3.8-4.8,5.4v1.1
		L980,271.2z M996.1,252.9c5.4-5.9,11.3-11.8,17.2-17.7l3.2,3.2c-5.9,5.4-11.8,11.3-17.2,17.2L996.1,252.9z M1022.8,227.3
		c8-7,16.6-13.9,25.2-20.9l2.7,3.2c-8.6,6.4-17.2,13.4-25.2,20.4L1022.8,227.3z M1060.9,196.7c2.1-1.6,4.3-3.2,7-4.8l2.7,3.8
		c-2.1,1.6-4.3,3.2-6.4,4.8L1060.9,196.7z M1081.3,183.3c7-4.3,13.9-8.6,21.5-12.3l2.1,3.8c-7,3.8-13.9,8-20.9,12.3L1081.3,183.3z
		 M1113.4,165c4.8-2.1,9.1-4.8,13.9-6.4c4.8-2.7,10.2-4.8,16.1-7l1.6,3.8c-5.4,2.1-10.7,4.8-15.6,7c-4.3,2.1-9.1,4.3-13.9,6.4
		L1113.4,165z M1158.4,145.3c2.7-1.1,5.4-1.6,7.5-2.7l1.6,4.3c-2.7,1.1-4.8,1.6-7.5,2.7L1158.4,145.3z M1181.5,137.8
		c1.1-0.5,2.1-0.5,2.7-1.1c4.8-1.6,9.1-2.7,12.3-3.2c1.6-0.5,3.2-0.5,4.3-1.1l4.3-1.1l1.1,4.3l-4.3,1.1c-1.1,0.5-2.7,0.5-4.8,1.1
		c-3.2,0.5-7.5,1.6-11.8,3.2c-1.1,0.5-1.6,0.5-2.7,1.1L1181.5,137.8z"/>
	<polygon fill="#00A5FF" points="1213.1,129.7 1229.7,126 1230.8,130.3 1214.1,134 	"/>
	<polygon fill="#00A5FF" points="1230.8,130.3 1230.2,126 1246.9,123.8 1247.4,128.1 	"/>
	<path fill="#00A5FF" d="M1263.5,126l-0.5-4.3l8-1.1l0.5,4.3L1263.5,126z M1287.6,124.4v-4.3l21.5-0.5c1.1,0,2.1,0,2.7,0v4.3
		c-1.1,0-1.6,0-2.7,0L1287.6,124.4z"/>
	<path fill="#00A5FF" d="M1323.4,124.4l0.5-4.3l23.1,1.6c2.7,0,5.9,0.5,9.7,1.1l-0.5,4.3c-3.8-0.5-6.4-0.5-9.1-1.1L1323.4,124.4z
		 M1371.7,129.7l0.5-4.3h1.1c2.1,0.5,4.8,1.1,7,1.1l-0.5,4.3c-2.7-0.5-4.8-1.1-7-1.1L1371.7,129.7L1371.7,129.7z M1395.8,134
		l1.1-4.3c3.8,1.1,7.5,1.6,10.7,2.7l12.9,3.8l-1.1,4.3l-12.9-3.8C1402.7,136.2,1399.6,135.1,1395.8,134z M1431.1,143.7l1.1-4.3
		c1.6,0.5,2.7,1.1,4.3,1.1l10.2,3.8c2.7,1.1,5.4,2.1,8.6,3.2c2.7,1.1,5.4,2.1,8,3.2l-1.6,3.8c-2.7-1.1-5.4-2.1-8-3.2
		c-2.7-1.1-5.9-2.1-8.6-3.2l-10.2-3.8C1433.8,144.8,1432.2,144.2,1431.1,143.7z M1476.2,161.3l1.6-3.8c2.7,1.1,4.8,2.1,7.5,3.8
		l-2.1,3.8C1481,164,1478.3,162.4,1476.2,161.3z M1497.7,172.6l2.1-3.8l12.3,6.4l9.1,5.4l-2.1,3.8l-10.7-7L1497.7,172.6z
		 M1529.2,190.8l2.1-3.8c9.1,5.4,17.7,11.8,26.8,18.8l-2.7,3.2C1546.4,202.6,1538.3,196.2,1529.2,190.8z M1568.4,219.8l2.7-3.2
		l0.5,0.5c2.1,1.6,3.8,3.2,5.9,4.8l-2.7,3.2c-1.6-1.6-3.8-3.2-5.4-4.8L1568.4,219.8z M1586.6,235.9l2.7-3.2
		c5.9,5.4,11.8,11.3,17.2,17.2l-3.2,3.2C1598.3,246.5,1592.5,241.2,1586.6,235.9z M1612.3,261.5l3.2-2.7c7,8,13.9,16.6,20.9,25.2
		l-3.2,2.7C1626.2,278.2,1619.2,269.6,1612.3,261.5z M1642.3,299.6l3.8-2.7c1.6,2.1,3.2,4.3,4.8,7l-3.8,2.7
		C1645.5,304.4,1643.9,301.8,1642.3,299.6z M1655.7,320l3.8-2.1c4.3,7,8.6,13.9,12.3,21.5l-3.8,2.1
		C1664.3,333.9,1660,327,1655.7,320z M1673.4,351.6l3.8-2.1c2.1,4.8,4.8,9.1,6.4,13.9c2.7,4.8,4.8,10.2,7,16.1l-3.8,1.6
		c-2.1-5.4-4.8-10.7-7-15.6C1678.3,360.7,1676.1,356.4,1673.4,351.6z M1693.3,396.1l4.3-1.6c1.1,2.7,1.6,5.4,2.7,7.5l-4.3,1.6
		C1694.9,401.4,1693.8,398.8,1693.3,396.1z M1700.7,419.2l4.3-1.6c0.5,1.1,0.5,1.6,1.1,2.7c1.6,4.8,2.7,9.1,3.2,12.3
		c0.5,1.6,0.5,3.2,1.1,4.3l1.1,4.3l-4.3,1.1l-1.1-4.3c-0.5-1.1-0.5-2.7-1.1-4.8c-0.5-3.2-1.6-7.5-3.2-11.8
		C1701.2,421.3,1701.2,420.2,1700.7,419.2z"/>
	<polygon fill="#00A5FF" points="1708.7,450.2 1713,449.1 1716.8,465.7 1712.5,466.8 	"/>
	<polygon fill="#00A5FF" points="1714.6,484 1712.5,466.8 1716.8,466.3 1718.9,483.4 	"/>
	<path fill="#00A5FF" d="M1718.4,548.2c0-1.1,0-1.6,0-2.7l-0.5-21.5h4.3l0.5,21.5c0,1.1,0,2.1,0,2.7H1718.4z M1717.3,508.1l-1.1-8
		l4.3-0.5l1.1,8L1717.3,508.1z"/>
	<path fill="#00A5FF" d="M1399.6,943.2l4.3-1.1c1.1-0.5,2.7-0.5,4.8-1.1c3.2-0.5,7.5-1.6,11.8-3.2c1.1-0.5,1.6-0.5,2.7-1.1l1.6,4.3
		c-1.1,0.5-1.6,0.5-2.7,1.1c-4.8,1.6-9.1,2.7-12.3,3.2c-1.6,0.5-3.2,0.5-4.3,1.1l-4.3,1.1L1399.6,943.2z M1438.6,932
		c2.7-1.1,4.8-1.6,7.5-2.7l1.6,4.3c-2.7,1.1-5.4,1.6-7.5,2.7L1438.6,932z M1461.2,923.4c5.4-2.1,10.7-4.8,15.6-7
		c4.3-2.1,9.1-4.3,13.9-6.4l2.1,3.8c-4.8,2.1-9.1,4.8-13.9,6.4c-4.8,2.7-10.2,4.8-16.1,7L1461.2,923.4z M1501.3,904.1
		c7-3.8,13.9-8,20.9-12.3l2.1,3.8c-7,4.3-13.9,8.6-21.5,12.3L1501.3,904.1z M1536.2,883.2c2.1-1.6,4.3-3.2,6.4-4.8l2.7,3.8
		c-2.1,1.6-4.3,3.2-7,4.8L1536.2,883.2z M1556,868.7c8.6-6.4,17.2-13.4,25.2-20.4l2.7,3.2c-8,7-16.6,13.9-25.2,20.9L1556,868.7z
		 M1589.8,840.3c5.9-5.4,11.8-11.3,17.2-17.2l3.2,2.7c-5.4,5.9-11.3,11.8-17.2,17.2L1589.8,840.3z M1617.6,810.8
		c1.6-1.6,3.2-3.8,4.8-5.4l0.5-0.5l3.2,2.7l-0.5,0.5c-1.6,2.1-3.2,3.8-4.8,5.9L1617.6,810.8z M1632.7,791.5
		c7-9.1,13.4-17.2,18.8-26.3l3.8,2.1c-5.4,9.1-11.8,17.7-18.8,26.8L1632.7,791.5z M1657.9,755l7-10.7l4.8-10.2l3.8,2.1l-6.4,12.3
		l-5.4,9.1L1657.9,755z M1677.2,719.7c1.1-2.1,2.7-4.8,3.8-7l3.8,1.6c-1.1,2.7-2.1,4.8-3.8,7.5L1677.2,719.7z M1687.4,697.2
		c1.1-2.7,2.1-5.4,3.2-8c1.1-2.7,2.1-5.9,3.2-8.6l3.8-10.2c0.5-1.1,1.1-2.7,1.1-4.3l4.3,1.1c-0.5,1.6-1.1,2.7-1.1,4.3l-3.8,10.2
		c-1.1,2.7-2.1,5.4-3.2,8.6c-1.1,2.7-2.1,5.4-3.2,8L1687.4,697.2z M1701.8,655.4l3.8-12.9c1.1-3.2,2.1-6.4,2.7-10.7l4.3,1.1
		c-1.1,3.8-1.6,7.5-2.7,10.7l-3.8,12.9L1701.8,655.4z M1711.4,616.3c0.5-2.7,1.1-4.8,1.1-7v-1.1l4.3,0.5v1.1c-0.5,2.1-1.1,4.8-1.1,7
		L1711.4,616.3z M1715.2,592.1c0.5-3.8,0.5-6.4,1.1-9.1l1.6-23.1l4.3,0.5l-1.6,23.1c0,2.7-0.5,5.9-1.1,9.7L1715.2,592.1z"/>
	<polygon fill="#00A5FF" points="1375.4,948.5 1392.1,944.8 1393.1,949.1 1376.5,952.8 	"/>
	<path fill="#00A5FF" d="M808.5,639.8l4.8-1.1l4.3,18.2l-4.8,1.1L808.5,639.8z M817,676.8l4.8-1.1v1.1l5.9,16.6l-4.3,1.6L817,676.8z
		 M828.8,713.3l4.3-1.6l2.7,8c1.1,2.7,2.1,5.9,3.8,9.7l-4.3,2.1c-1.6-4.3-3.2-7-3.8-10.2L828.8,713.3z M843.3,748.1l4.3-2.1l8,17.2
		l-4.3,2.1L843.3,748.1z M860.4,782.4l4.3-2.1l9.7,16.1l-4.3,2.7L860.4,782.4z M879.8,815.1l3.8-2.7c1.6,2.1,2.7,4.3,4.3,6.4
		c1.1,1.6,2.1,3.2,3.2,4.8l3.2,4.3l-3.8,2.7l-3.2-4.3c-1.1-1.6-2.1-3.2-3.2-4.8C882.4,819.4,880.8,817.3,879.8,815.1z M901.8,846.2
		l3.8-2.7l5.9,8c1.6,2.1,3.8,4.8,5.9,7l-3.8,3.2c-2.1-2.1-3.8-4.8-5.9-7L901.8,846.2z M926.3,875.7l3.8-3.2
		c4.3,4.8,8.6,9.1,12.9,13.9l-3.2,3.2C934.9,884.8,930.6,880,926.3,875.7z M952.6,903l3.2-3.2c4.3,4.3,9.1,8.6,13.9,12.9l-3.2,3.8
		C961.7,911.6,957.4,907.3,952.6,903z M981.1,928.2l3.2-3.8c4.8,4.3,9.7,8,14.5,11.8l-2.7,3.8C990.7,936.2,985.9,932.4,981.1,928.2z
		 M1011,951.7l2.7-3.8l2.7,1.6c4.3,2.7,8.6,5.9,13.4,8.6l-2.7,3.8c-4.3-2.7-9.1-5.9-13.4-8.6L1011,951.7z M1043.2,972.1l2.1-4.3
		c5.4,3.2,10.7,6.4,16.6,9.1l-2.1,4.3C1053.9,978.6,1048.6,975.4,1043.2,972.1z M1076.5,990.4l2.1-4.3c5.9,2.7,11.3,5.4,17.2,8
		l-2.1,4.3C1087.7,996.3,1082.4,993.6,1076.5,990.4z M1111.2,1006.5l1.6-4.3c5.9,2.7,11.8,4.8,17.7,7l-1.6,4.3
		C1123,1011.3,1117.1,1009.2,1111.2,1006.5z M1146.6,1019.9l1.1-4.3l18.2,5.4l-1.1,4.3L1146.6,1019.9z M1183.1,1030.1l1.1-4.8
		c2.7,1.1,5.9,1.6,8.6,2.1l9.7,1.6l-1.1,4.8l-9.7-1.6C1189.6,1031.6,1186.3,1031.1,1183.1,1030.1z M1220.6,1037.5l1.1-4.8l18.2,3.2
		l-0.5,4.8l-3.2-0.5L1220.6,1037.5z M1258.7,1042.3l0.5-4.8l9.1,0.5c3.2,0,6.4,0.5,9.7,0.5l-0.5,4.8c-3.2-0.5-6.4-0.5-9.7-0.5
		L1258.7,1042.3z M1296.8,1044.5v-4.8l18.8-0.5v4.8L1296.8,1044.5z M1334.1,1043.4v-4.8h4.8l13.4-1.6l0.5,4.8l-13.9,1.6H1334.1z
		 M1372.2,1039.6l-0.5-4.8l18.8-2.1l0.5,4.8L1372.2,1039.6z"/>
	<path fill="#00A5FF" d="M805.3,627.6l-2.1-18.8l4.8-0.5l2.1,18.8L805.3,627.6z M800.5,589.5l-1.6-13.9v-5.4h4.8v4.8l1.6,13.4
		L800.5,589.5z M798.3,551.4l-0.5-18.8h4.8l0.5,18.8H798.3z M798.8,513.5c0.5-3.2,0.5-6.4,0.5-9.7l0.5-9.1l4.8,0.5l-0.5,9.1
		c0,3.2-0.5,6.4-0.5,9.7L798.8,513.5z M801.5,475.9l0.5-3.2l2.7-15.6l4.8,1.1l-3.2,18.2L801.5,475.9z M808,438.5l2.1-9.7
		c0.5-3.2,1.6-5.9,2.1-9.1l4.8,1.1c-1.1,2.7-1.6,5.9-2.1,8.6l-1.6,9.7L808,438.5z M817.5,401.4l5.4-18.2l4.8,1.1l-5.4,18.2
		L817.5,401.4z M828.8,365c2.1-5.9,4.8-11.8,7-17.7l4.3,1.6c-2.7,5.9-4.8,11.8-7,17.7L828.8,365z M843.8,329.7
		c2.7-5.9,5.4-11.3,8-17.2l4.3,2.1c-2.7,5.9-5.4,11.3-8,17.2L843.8,329.7z M861,295.9c3.2-5.4,5.9-11.3,9.1-16.6l4.3,2.7
		c-3.2,5.4-6.4,10.7-9.1,16.6L861,295.9z M880.3,263.1c2.7-4.3,5.9-9.1,8.6-13.4l1.6-2.7l3.8,2.7l-1.6,2.7
		c-2.7,4.3-5.9,8.6-8.6,13.4L880.3,263.1z M902.3,232.1c3.8-4.8,8-10.2,11.8-15l3.8,3.2c-4.3,4.8-8,9.7-11.8,14.5L902.3,232.1z
		 M926.9,202.6c4.3-4.8,8.6-9.1,12.9-13.9l3.2,3.2c-4.3,4.3-8.6,9.1-12.9,13.9L926.9,202.6z M953.2,175.2c4.8-4.3,9.1-8.6,13.9-12.9
		l3.2,3.8c-4.8,4.3-9.1,8.6-13.9,12.9L953.2,175.2z M981.1,149.5c2.1-2.1,4.8-3.8,7-5.9l8-5.9l2.7,3.8l-8,5.9
		c-2.1,1.6-4.8,3.8-7,5.9L981.1,149.5z M1011.5,127.1l4.3-3.2c1.6-1.1,3.2-2.1,4.8-3.2c2.1-1.6,4.3-3.2,6.4-4.3l2.7,3.8
		c-2.1,1.6-4.3,2.7-5.9,4.3c-1.6,1.1-3.2,2.1-4.8,3.2l-4.3,3.2L1011.5,127.1z M1043.7,106.1l1.1,2.1L1043.7,106.1l16.1-9.7l2.1,4.3
		l-16.1,9.7L1043.7,106.1z M1077,87.4l17.2-8l2.1,4.3l-17.2,8L1077,87.4z M1111.2,71.8c4.3-1.6,7-3.2,10.2-3.8l8-2.7l1.6,4.3l-8,2.7
		c-2.7,1.1-5.9,2.1-9.7,3.8L1111.2,71.8z M1147.2,58.9l18.2-5.9l1.1,4.8h-1.1l-16.6,5.9L1147.2,58.9z M1184.2,48.7l18.2-4.3l1.1,4.8
		l-18.2,4.4L1184.2,48.7z"/>
	<path fill="#00A5FF" d="M1215.7,46.1l-0.5-4.8l18.8-2.1l0.5,4.8L1215.7,46.1z M1253.3,41.3l-0.5-4.8l13.9-1.6h5.4v4.8h-4.8
		L1253.3,41.3z M1290.9,39.2v-4.8l18.8-0.5v4.8L1290.9,39.2z M1328.2,39.7l0.5-4.8c3.2,0.5,6.4,0.5,9.7,0.5l9.1,0.5l-0.5,4.8
		l-9.1-0.5C1334.7,40.2,1331.4,39.7,1328.2,39.7z M1366.3,42.4l0.5-4.8l3.2,0.5l15.6,2.7l-1.1,4.8L1366.3,42.4z M1403.2,48.7
		l1.1-4.8l9.7,1.6c3.2,0.5,5.9,1.6,9.1,2.1l-1.1,4.8c-2.7-1.1-5.9-1.6-8.6-2.1L1403.2,48.7z M1439.7,57.8l1.1-4.8l18.2,5.4l-1.1,4.3
		L1439.7,57.8z M1475.7,69.6l1.6-4.3c5.9,2.1,11.8,4.8,17.7,7l-1.6,4.3C1487.5,73.9,1481.6,71.8,1475.7,69.6z M1510.4,84.1l2.1-4.3
		c5.9,2.7,11.3,5.4,17.2,8l-2.1,4.3C1521.7,89.5,1516.3,86.8,1510.4,84.1z M1544.2,101.3l2.1-4.3c5.4,3.2,11.3,5.9,16.6,9.1
		l-2.1,4.3C1555.5,107.2,1550.1,104,1544.2,101.3z M1577,120.1l2.7-3.8c4.3,2.7,9.1,5.9,13.4,8.6l2.7,1.6l-2.7,3.8l-2.7-1.6
		C1585.5,126,1581.3,123.3,1577,120.1z M1607.4,142.1l2.7-3.8c4.8,3.8,10.2,8,15,11.8l-3.2,3.8
		C1617.6,150,1612.3,145.8,1607.4,142.1z M1636.4,166.1l3.2-3.8c4.8,4.3,9.1,8.6,13.9,12.9l-3.2,3.2
		C1645.5,174.7,1641.2,170.4,1636.4,166.1z M1663.8,192.4l3.2-3.2c4.3,4.8,8.6,9.1,12.9,13.9l-3.8,3.2
		C1672.4,201.5,1668.1,197.2,1663.8,192.4z M1689,220.3l3.8-3.2c2.1,2.1,3.8,4.8,5.9,7l5.9,8l-3.8,2.7l-5.9-8
		C1693.3,225.1,1691.1,223,1689,220.3z M1711.4,250.8l3.8-2.7l3.2,4.3c1.1,1.6,2.1,3.2,3.2,4.8c1.6,2.1,3.2,4.3,4.3,6.4l-3.8,2.7
		c-1.6-2.1-2.7-4.3-4.3-6.4c-1.1-1.6-2.1-3.2-3.2-4.8L1711.4,250.8z M1732.3,282.4l4.3-2.7l9.7,16.1l-4.3,2.1L1732.3,282.4z
		 M1750.6,315.2l4.3-2.1l8,17.2l-4.3,2.1L1750.6,315.2z M1766.7,349.4l4.3-2.1c1.6,4.3,3.2,7,3.8,10.2l2.7,8l-4.3,1.6l-2.7-8
		C1769.4,356.4,1768.3,353.2,1766.7,349.4z M1779,384.8l4.3-1.6l5.9,18.2l-4.8,1.1v-1.1L1779,384.8z M1789.2,421.3l4.8-1.1l4.3,18.2
		l-4.8,1.1L1789.2,421.3z"/>
	<path fill="#00A5FF" d="M1402.7,1029.5l18.2-4.3l1.1,4.8l-18.2,4.3L1402.7,1029.5z M1439.7,1021l1.1-0.5l16.6-5.9l1.6,4.3
		l-18.2,5.9L1439.7,1021z M1475.7,1009.2l8-2.7c2.7-1.1,5.9-2.1,9.7-3.8l2.1,4.3c-4.3,1.6-7,3.2-10.2,3.8l-8,2.7L1475.7,1009.2z
		 M1509.9,994.7l17.2-8l2.1,4.3l-17.2,8L1509.9,994.7z M1543.7,978l16.1-9.7l2.7,4.3l-1.1-2.1l1.1,2.1l-16.1,9.7L1543.7,978z
		 M1576.4,958.7c2.1-1.6,4.3-2.7,6.4-4.3c1.6-1.1,3.2-2.1,4.8-3.2l4.3-3.2l2.7,3.8l-4.3,3.2c-1.6,1.1-3.2,2.1-4.8,3.2
		c-2.1,1.6-4.3,3.2-6.4,4.3L1576.4,958.7z M1606.9,936.7l8-5.9c2.1-1.6,4.8-3.8,7-5.9l3.2,3.8c-2.1,2.1-4.8,3.8-7,5.9l-8,5.9
		L1606.9,936.7z M1636.4,912.7c4.8-4.3,9.1-8.6,13.9-12.9l3.2,3.2c-4.8,4.3-9.1,8.6-13.9,12.9L1636.4,912.7z M1663.2,886.4
		c4.3-4.3,8.6-9.1,12.9-13.9l3.8,3.2c-4.3,4.8-8.6,9.7-12.9,13.9L1663.2,886.4z M1688.5,858.5c4.3-4.8,8-9.7,11.8-14.5l3.8,2.7
		c-3.8,4.8-8,10.2-11.8,15L1688.5,858.5z M1712,828.5l1.6-2.7c2.7-4.3,5.9-8.6,8.6-13.4l3.8,2.7c-2.7,4.3-5.9,9.1-8.6,13.4l-1.6,2.7
		L1712,828.5z M1731.8,796.9c3.2-5.4,6.4-10.7,9.1-16.6l4.3,2.1c-3.2,5.4-5.9,11.3-9.1,16.6L1731.8,796.9z M1750.1,763.6
		c2.7-5.9,5.4-11.3,8-17.2l4.3,2.1c-2.7,5.9-5.4,11.3-8,17.2L1750.1,763.6z M1766.1,729.4c2.7-5.9,4.8-11.8,7-17.7l4.3,1.6
		c-2.1,5.9-4.8,11.8-7,17.7L1766.1,729.4z M1779,694.5l5.4-18.2l4.8,1.1l-5.4,18.2L1779,694.5z M1789.8,658c1.1-2.7,1.6-5.9,2.1-8.6
		l1.6-9.7l4.8,1.1l-1.6,9.7c-0.5,3.2-1.6,5.9-2.1,9.1L1789.8,658z M1796.6,621.1l3.2-18.2l4.8,0.5l-0.5,3.2l-2.7,15.6L1796.6,621.1z
		 M1801.5,583.6l0.5-9.1c0-3.2,0.5-6.4,0.5-9.7l4.8,0.5c-0.5,3.2-0.5,6.4-0.5,9.7l-0.5,9.1L1801.5,583.6z M1803.6,546l-0.5-18.8h4.8
		l0.5,18.8H1803.6z M1802.5,508.1v-4.8l-1.6-13.4l4.8-0.5l1.6,13.9v5.4L1802.5,508.1z M1798.8,470.6l-2.1-18.8l4.8-0.5l2.1,18.8
		L1798.8,470.6z"/>
	<path fill="#00A5FF" d="M1027.1,1001.1c0-1.1,0-1.6,0.5-2.7c0.5-0.5,1.1-1.1,2.1-1.6c1.1,0,2.1,0,2.7,0.5l3.2,2.1
		c0.5,0.5,1.1,0.5,1.6,1.1c1.1,0.5,2.1,1.1,3.2,2.1c1.6,1.1,2.1,3.2,1.1,4.8c-1.1,1.6-3.2,2.1-4.8,1.1c-1.6-1.1-2.7-1.6-3.8-2.1
		c-0.5-0.5-1.1-0.5-1.6-1.1l-3.2-2.1C1027.6,1003.3,1027.1,1002.2,1027.1,1001.1z M1102.7,1038L1102.7,1038c0-0.5,0-1.1,0-2.1
		c0.5-1.1,1.1-1.6,1.6-2.1c1.1-0.5,1.6-0.5,2.7,0c1.6,0.5,2.7,2.7,2.1,4.8c-0.5,1.6-2.7,2.7-4.3,2.1l0,0
		C1103.8,1040.2,1103.3,1039.1,1102.7,1038z M1189.6,1064.9c0-0.5,0-1.1,0-1.1c0-1.1,0.5-1.6,1.6-2.1c0.5-0.5,1.6-0.5,2.7-0.5
		s2.1,0.5,3.2,0.5l32.7,5.9c4.8,1.1,9.7,1.6,15,1.6h0.5c4.8,0.5,10.2,1.1,15,1.1h1.1c3.8,0.5,7.5,0.5,11.3,1.1
		c6.4,0.5,12.3,1.1,18.2,1.1c6.4,0,12.9-0.5,18.8-0.5l9.7-0.5c8,0,15-0.5,21.5-0.5c4.3-0.5,8-1.1,11.3-1.6c2.1,0,3.8-0.5,5.9-0.5
		c9.7-1.1,15-1.6,15-1.6c2.1,0,3.8,1.1,3.8,2.7l0,0c0,2.1-1.1,3.8-3.2,3.8c0,0-5.9,0.5-15,2.1c-1.6,0-3.8,0.5-5.4,0.5
		c-3.8,0.5-7.5,1.1-12.3,1.6l0,0c-4.8,0-9.7,0-15,0.5l-34.9,1.1c-6.4,0-12.9-0.5-19.3-1.1c-3.8,0-7-0.5-10.7-0.5
		c-2.7,0-5.9-0.5-8.6-0.5l-8-0.5c-5.4-0.5-10.7-0.5-16.1-2.1c-8-1.6-15.6-2.7-23.6-4.3l-9.1-1.6c-1.1,0-2.1-0.5-3.2-0.5
		C1191.2,1067.5,1190.1,1065.9,1189.6,1064.9z"/>
	<path fill="#00A5FF" d="M772,633.5c-8.6-47.2-10.2-95.4-5.9-143.1c0-1.1,0.5-1.6,1.1-2.1c0.5-0.5,1.6-1.1,2.7-1.1
		c1.6,0,3.2,2.1,3.2,3.8c-4.3,47.2-2.1,94.3,5.9,141v0.5c2.1,11.3,4.3,22,7,33.3v0.5c0.5,1.1,0.5,2.1,0.5,3.2
		c0.5,2.1-0.5,3.8-2.7,4.3c-1.1,0-1.6,0-2.7-0.5c-0.5-0.5-1.6-1.1-1.6-2.1c-0.5-1.1-0.5-2.7-1.1-3.8l0,0
		C776.8,656.4,774.2,645.2,772,633.5z M784.9,687.5c-0.5-1.6,1.1-3.8,2.7-4.3c1.6-0.5,3.8,0.5,4.3,2.7l0,0c0.5,1.6-0.5,3.8-2.7,4.3
		C787.6,690.8,785.4,689.7,784.9,687.5L784.9,687.5z M810.1,757.2c-0.5-1.6,0.5-3.2,2.1-3.8c1.1-0.5,1.6-0.5,2.7,0
		c1.1,0.5,1.6,1.1,2.1,1.6c0.5,1.6,0,3.8-1.6,4.8c-1.6,0.5-3.8,0-4.8-1.6l0,0C810.1,757.7,810.1,757.2,810.1,757.2z M853.5,836.5
		c0-1.6,0.5-2.7,1.6-3.8c0.5-0.5,1.6-0.5,2.7-0.5c1.1,0,1.6,0.5,2.1,1.6c1.6,2.7,3.2,4.8,4.8,7c29.5,44.5,62.1,75,86.3,97.5l4.3,4.3
		l0,0c8.6,7,15.6,12.3,22,17.2c2.1,1.6,4.3,3.2,5.9,4.8l0,0c1.6,1.1,1.6,3.2,0.5,4.8s-3.2,1.6-4.8,0.5c-1.6-1.6-3.8-2.7-5.9-4.3
		c-5.9-4.8-13.9-10.7-22.5-17.7l0,0c-1.6-1.6-3.2-3.2-4.8-4.3c-24.1-22.5-57.3-53.6-86.8-98.6c-1.6-2.1-3.2-4.8-4.8-7
		C854,837.6,853.5,837,853.5,836.5z M781.7,402c0-0.5,0-1.1,0-1.6c0-1.1,1.1-1.6,1.6-2.1c1.1-0.5,1.6-0.5,2.7-0.5
		c1.6,0.5,3.2,2.7,2.7,4.3c0,1.1-1.1,1.6-1.6,2.1c-1.1,0.5-1.6,0.5-2.7,0.5C783.3,404.1,782.2,403.1,781.7,402z M805.8,331.8
		c0-0.5,0-1.6,0-2.1c1.1-1.6,3.2-2.7,5.4-2.1c1.6,0.5,2.7,2.7,2.1,4.8c-0.5,1.6-2.7,2.7-4.8,2.1
		C806.9,333.9,806.4,332.9,805.8,331.8z M812.7,316.8c0-0.5,0-1.6,0-2.1c12.3-26.8,26.3-51.9,42.4-75.5c17.7-26.3,37.6-51.4,60-74.5
		c0.5-0.5,1.6-1.1,2.7-1.1c1.1,0,2.1,0.5,2.7,1.1c1.6,1.1,1.6,3.8,0,4.8c-22,23.1-42.4,47.7-59.5,73.4c-15.6,23.1-30,48.3-41.8,75
		c-0.5,1.1-1.1,1.6-2.1,1.6c-1.1,0.5-1.6,0.5-2.7,0C813.8,318.4,812.7,317.9,812.7,316.8z M990.7,978L990.7,978c0-1.1,0-2.1,0.5-2.7
		c1.1-1.6,3.2-1.6,4.8-0.5s1.6,3.2,0.5,4.8s-3.2,1.6-4.8,0.5l0,0C991.2,979.6,990.7,979.1,990.7,978z M983.2,107.7
		c0-1.1,0.5-2.7,1.6-3.2c1.6-1.1,3.8-0.5,4.8,0.5c1.1,1.6,0.5,3.8-0.5,4.8c-1.6,1.1-3.8,0.5-4.8-0.5
		C983.2,108.8,983.2,108.3,983.2,107.7z M1045.9,68c0-1.6,0.5-3.2,1.6-3.8c1.1-0.5,1.6-0.5,2.7-0.5s1.6,1.1,2.1,1.6
		c1.1,1.6,0.5,3.8-1.6,4.8l0,0c-1.1,0.5-1.6,0.5-2.7,0s-1.6-1.1-2.1-1.6C1045.9,68.6,1045.9,68,1045.9,68z M1060.4,60
		c-0.5-1.6,0.5-3.2,2.1-3.8c4.8-2.1,10.2-4.8,14.5-7l10.2-4.8c1.1-0.5,2.7-1.1,3.8-1.6c7.5-3.2,14.5-7,22-9.1l36.4-12.3
		c4.8-1.6,8-2.7,10.2-2.7l1.6-0.5c1.1,0,1.6-0.5,2.1-0.5l0,0c1.1,0,1.6,0,2.7,0.5c0.5,0.5,1.6,1.1,1.6,2.1c0.5,2.1-0.5,3.8-2.7,4.3
		c0,0-1.1,0.5-3.8,1.1c-2.1,0.5-5.4,1.1-9.1,2.7c-7,2.1-16.6,5.4-28.4,9.7l-8,2.7c-6.4,1.6-13.9,5.4-21.5,8.6l-9.1,4.3
		c-6.4,2.7-12.9,5.9-19.9,9.1l0,0c-1.6,1.1-3.8,0-4.8-1.6C1060.4,60.5,1060.4,60.5,1060.4,60z"/>
	<path fill="#00A5FF" d="M1229.2,9.1L1229.2,9.1c-0.5-2.1,1.1-3.8,3.2-4.3l0,0c0,0,0.5,0,1.6,0l13.9-1.6c1.6,0,3.8-0.5,5.4-0.5
		c3.8-0.5,7.5-1.1,12.3-1.6l0,0c7,0,14.5-0.5,23.1-0.5c4.3,0,9.1,0,13.9-0.5l12.9-0.5c6.4,0,12.9,0.5,19.9,1.1c3.8,0,7,0.5,10.7,0.5
		c5.4,0.5,10.7,1.1,16.1,1.1h0.5c5.4,0.5,10.7,0.5,16.1,2.1l32.7,5.9c1.1,0,2.1,0.5,3.2,0.5c1.6,0,3.2,2.1,2.7,4.3s-2.1,3.2-4.3,2.7
		c-1.1,0-2.1-0.5-3.2-0.5h-1.6c-10.2-1.6-20.9-3.8-31.1-5.4c-4.8-1.1-10.2-1.6-15.6-2.1h-0.5c-2.7,0-5.9-0.5-8.6-0.5l-7.5-0.5
		c-3.8-0.5-7.5-0.5-11.3-1.1c-6.4-0.5-12.3-1.1-18.8-1.1L1286.6,7c-7.5,0-15,0.5-21.5,0.5c-4.3,0.5-8,1.1-11.8,1.6
		c-2.1,0-3.8,0.5-5.4,0.5c-9.7,1.1-15,2.1-15,2.1C1231.3,12.3,1229.7,10.7,1229.2,9.1z M1496.6,41.8c0-0.5,0-1.1,0-1.6
		c0.5-1.1,1.1-1.6,1.6-2.1c1.1-0.5,1.6-0.5,2.7,0c1.6,0.5,2.7,2.7,2.1,4.8c-0.5,1.1-1.1,1.6-1.6,2.1c-1.1,0.5-1.6,0.5-2.7,0
		C1497.7,44,1496.6,42.9,1496.6,41.8z M1563.5,73.4c0-1.1,0-1.6,0.5-2.7c1.1-1.6,3.2-2.1,4.8-1.1c1.6,1.1,2.7,1.6,3.8,2.1
		c0.5,0.5,1.1,1.1,1.6,1.1l3.2,2.1c1.6,1.1,2.1,3.2,1.1,4.8c-1.1,1.6-3.2,2.1-4.8,1.1l-3.2-2.1c-0.5-0.5-1.1-0.5-1.6-1.1
		c-1.1-0.5-2.1-1.6-3.2-2.1S1564.1,74.5,1563.5,73.4z"/>
	<path fill="#00A5FF" d="M1438.6,1057.3c-0.5-2.1,0.5-3.8,2.7-4.3c0,0,1.1-0.5,3.8-1.1c1.6-0.5,4.8-1.1,9.1-2.7
		c8.6-2.7,20.9-7,36.5-12.3c6.4-1.6,13.4-5.4,20.9-8.6c1.1-0.5,2.7-1.1,3.8-1.6c8-3.8,16.1-7.5,25.2-11.3c1.1-0.5,1.6-0.5,2.7,0
		s1.6,1.1,2.1,1.6c0.5,1.6,0,3.8-1.6,4.8l-2.1,1.1c-8,3.8-16.1,7.5-23.1,10.7c-1.6,0.5-2.7,1.1-4.3,2.1c-7.5,3.2-14.5,7-21.5,8.6
		l-36.5,12.3c-4.8,1.6-8,2.7-10.2,3.2l-1.6,0.5c-1.1,0-1.6,0.5-1.6,0.5l0,0C1441.3,1060.6,1439.2,1059.5,1438.6,1057.3
		L1438.6,1057.3z M1553.4,1011.8c0-1.6,0.5-3.2,1.6-3.8c0.5-0.5,1.6-0.5,2.7-0.5c1.1,0.5,1.6,1.1,2.1,1.6c1.1,1.6,0.5,3.8-1.6,4.8
		c-1.6,1.1-3.8,0.5-4.8-1.1C1553.9,1012.9,1553.9,1012.4,1553.4,1011.8z M1616,972.1c0-1.1,0.5-2.7,1.6-3.2c0.5-0.5,1.6-0.5,2.7-0.5
		s1.6,0.5,2.1,1.6c1.1,1.6,0.5,3.8-0.5,4.8c-0.5,0.5-1.6,0.5-2.7,0.5s-1.6-0.5-2.1-1.6C1616.6,973.2,1616,972.7,1616,972.1z
		 M1684.7,912.7c0-1.1,0-2.1,1.1-3.2c22-23.1,42.4-47.7,59.5-73.4c15.6-23.1,30-48.3,41.8-75c1.1-1.6,2.7-2.7,4.8-1.6
		c1.6,1.1,2.7,3.2,1.6,4.8c-12.3,26.8-26.3,51.9-42.4,75.5c-17.7,26.3-38.1,51.4-60,74.5c-1.1,1.6-3.8,1.6-4.8,0
		C1685.2,914.3,1684.7,913.2,1684.7,912.7z M1608.5,101.8c0-1.1,0-2.1,0.5-2.7c0.5-0.5,1.6-1.1,2.1-1.6c1.1,0,1.6,0,2.7,0.5l0,0
		c1.6,1.1,1.6,3.2,0.5,4.8c-1.1,1.6-3.2,1.6-4.8,0.5C1609,103.4,1608.5,102.4,1608.5,101.8z M1621.4,112c0-1.1,0-2.1,0.5-2.7
		c1.1-1.6,3.2-1.6,4.8-0.5c2.1,1.6,3.8,3.2,6.4,4.8c5.9,4.8,13.4,10.2,22,17.2l0,0c1.6,1.6,3.2,2.7,4.8,4.3
		c24.1,22.5,57.3,53.6,87.4,98.6c1.6,2.1,3.2,4.8,4.8,7c1.1,1.6,0.5,3.8-1.1,4.8c-1.6,1.1-3.8,0.5-4.8-1.1c-1.6-2.7-3.2-4.8-4.8-7
		c-29.5-44.5-62.1-75-86.3-97.5l-4.3-4.3c-8.6-7-16.1-12.9-22-17.2c-2.1-1.6-4.3-3.2-5.9-4.8l0,0
		C1621.9,113.6,1621.9,112.6,1621.4,112z M1793.5,748.1c0-0.5,0-1.6,0-2.1c0.5-1.6,2.7-2.7,4.8-2.1c1.6,0.5,2.7,2.7,2.1,4.8
		c-0.5,1.6-2.7,2.7-4.8,2.1C1794.5,750.2,1793.5,749.1,1793.5,748.1z M1817.6,677.9c0-0.5,0-1.1,0-1.6c0.5-1.1,1.1-1.6,1.6-2.1
		s1.6-0.5,2.7-0.5c1.6,0.5,3.2,2.7,2.7,4.3l0,0c0,1.1-1.1,1.6-1.6,2.1s-1.6,0.5-2.7,0.5C1818.6,680.6,1817.6,679.5,1817.6,677.9z
		 M1833.1,588.4c0-0.5,0-0.5,0-1.1c5.4-58.4,1.1-117.4-13.4-175.2c-0.5-1.1-0.5-2.7-1.1-3.8c-0.5-2.1,0.5-3.8,2.7-4.3
		c1.6-0.5,3.8,0.5,4.3,2.7c0,0.5,0.5,1.6,0.5,2.1s0.5,1.6,0.5,2.1c14.5,57.8,18.8,118.5,13.4,177.4c0,2.1-2.1,3.2-3.8,3.2
		C1834.7,591.6,1833.6,590,1833.1,588.4z M1789.2,322.7c-0.5-1.6,0.5-3.2,2.1-3.8c1.6-0.5,3.8,0,4.8,1.6s0,3.8-1.6,4.8
		c-1.6,0.5-3.8,0-4.8-1.6C1789.8,323.2,1789.8,323.2,1789.2,322.7z M1814.9,392.3c-0.5-1.6,0.5-3.8,2.7-4.3c1.6-0.5,3.8,0.5,4.3,2.7
		c0.5,1.6-0.5,3.8-2.7,4.3C1817,396.1,1815.4,395,1814.9,392.3C1814.9,392.9,1814.9,392.9,1814.9,392.3z"/>
</g>
</svg>
