<?xml version="1.0" encoding="utf-8"?>
<!-- Generator: Adobe Illustrator 18.0.0, SVG Export Plug-In . SVG Version: 6.00 Build 0)  -->
<!DOCTYPE svg PUBLIC "-//W3C//DTD SVG 1.1//EN" "http://www.w3.org/Graphics/SVG/1.1/DTD/svg11.dtd">
<svg version="1.1" id="Isolation_Mode" xmlns="http://www.w3.org/2000/svg" xmlns:xlink="http://www.w3.org/1999/xlink" x="0px"
	 y="0px" viewBox="0 0 1406.4 638.6" enable-background="new 0 0 1406.4 638.6" xml:space="preserve">
<g id="XMLID_710_" opacity="0.15">
	<path id="XMLID_6_" fill="none" stroke="#F3F3F3" stroke-width="0.5428" stroke-miterlimit="10" d="M1549,402.6
		c0,0-140.7,67.6-364.9,67.6S899.6,294,616.6,294S274.9,574.8-105.5,574.8"/>
	<path opacity="0.9756" fill="none" stroke="#F3F3F3" stroke-width="0.5362" stroke-miterlimit="10" d="M1549,399.6
		c0,0-140.7,74.7-364.9,74.7S899.6,287.5,616.6,287.5S274.9,566.7-105.5,566.7"/>
	<path opacity="0.9512" fill="none" stroke="#F3F3F3" stroke-width="0.5296" stroke-miterlimit="10" d="M1549,396.6
		c0,0-140.7,81.9-364.9,81.9S899.6,281,616.6,281S274.9,558.5-105.5,558.5"/>
	<path opacity="0.9268" fill="none" stroke="#F3F3F3" stroke-width="0.523" stroke-miterlimit="10" d="M1549,393.7
		c0,0-140.7,89.1-364.9,89.1S899.6,274.6,616.6,274.6S274.9,550.4-105.5,550.4"/>
	<path opacity="0.9024" fill="none" stroke="#F3F3F3" stroke-width="0.5164" stroke-miterlimit="10" d="M1549,390.7
		c0,0-140.7,96.2-364.9,96.2S899.6,268.1,616.6,268.1S274.9,542.2-105.5,542.2"/>
	<path opacity="0.878" fill="none" stroke="#F3F3F3" stroke-width="0.5097" stroke-miterlimit="10" d="M1549,387.7
		c0,0-140.7,103.4-364.9,103.4S899.6,261.7,616.6,261.7S274.9,534.1-105.5,534.1"/>
	<path opacity="0.8537" fill="none" stroke="#F3F3F3" stroke-width="0.5031" stroke-miterlimit="10" d="M1549,384.8
		c0,0-140.7,110.5-364.9,110.5S899.6,255.2,616.6,255.2S274.9,526-105.5,526"/>
	<path opacity="0.8293" fill="none" stroke="#F3F3F3" stroke-width="0.4965" stroke-miterlimit="10" d="M1549,381.8
		c0,0-140.7,117.7-364.9,117.7S899.6,248.7,616.6,248.7S274.9,517.8-105.5,517.8"/>
	<path opacity="0.8049" fill="none" stroke="#F3F3F3" stroke-width="0.4899" stroke-miterlimit="10" d="M1549,378.8
		c0,0-140.7,124.9-364.9,124.9S899.6,242.3,616.6,242.3S274.9,509.7-105.5,509.7"/>
	<path opacity="0.7805" fill="none" stroke="#F3F3F3" stroke-width="0.4833" stroke-miterlimit="10" d="M1549,375.8
		c0,0-140.7,132-364.9,132S899.6,235.8,616.6,235.8S274.9,501.5-105.5,501.5"/>
	<path opacity="0.7561" fill="none" stroke="#F3F3F3" stroke-width="0.4766" stroke-miterlimit="10" d="M1549,372.9
		c0,0-140.7,139.2-364.9,139.2S899.6,229.3,616.6,229.3s-341.7,264-722.1,264"/>
	<path opacity="0.7317" fill="none" stroke="#F3F3F3" stroke-width="0.47" stroke-miterlimit="10" d="M1549,369.9
		c0,0-140.7,146.4-364.9,146.4S899.6,222.9,616.6,222.9S274.9,485.2-105.5,485.2"/>
	<path opacity="0.7073" fill="none" stroke="#F3F3F3" stroke-width="0.4634" stroke-miterlimit="10" d="M1549,366.9
		c0,0-140.7,153.5-364.9,153.5s-284.5-304-567.5-304S274.9,477.1-105.5,477.1"/>
	<path opacity="0.6829" fill="none" stroke="#F3F3F3" stroke-width="0.4568" stroke-miterlimit="10" d="M1549,364
		c0,0-140.7,160.7-364.9,160.7S899.6,210,616.6,210S274.9,469-105.5,469"/>
	<path opacity="0.6585" fill="none" stroke="#F3F3F3" stroke-width="0.4502" stroke-miterlimit="10" d="M1549,361
		c0,0-140.7,167.9-364.9,167.9S899.6,203.5,616.6,203.5S274.9,460.8-105.5,460.8"/>
	<path opacity="0.6341" fill="none" stroke="#F3F3F3" stroke-width="0.4435" stroke-miterlimit="10" d="M1549,358
		c0,0-140.7,175-364.9,175S899.6,197,616.6,197S274.9,452.7-105.5,452.7"/>
	<path opacity="0.6098" fill="none" stroke="#F3F3F3" stroke-width="0.4369" stroke-miterlimit="10" d="M1549,355
		c0,0-140.7,182.2-364.9,182.2S899.6,190.6,616.6,190.6s-341.7,254-722.1,254"/>
	<path opacity="0.5854" fill="none" stroke="#F3F3F3" stroke-width="0.4303" stroke-miterlimit="10" d="M1549,352.1
		c0,0-140.7,189.4-364.9,189.4S899.6,184.1,616.6,184.1S274.9,436.4-105.5,436.4"/>
	<path opacity="0.561" fill="none" stroke="#F3F3F3" stroke-width="0.4237" stroke-miterlimit="10" d="M1549,349.1
		c0,0-140.7,196.5-364.9,196.5s-284.5-368-567.5-368S274.9,428.2-105.5,428.2"/>
	<path opacity="0.5366" fill="none" stroke="#F3F3F3" stroke-width="0.4171" stroke-miterlimit="10" d="M1549,346.1
		c0,0-140.7,203.7-364.9,203.7S899.6,171.2,616.6,171.2S274.9,420.1-105.5,420.1"/>
	<path opacity="0.5122" fill="none" stroke="#F3F3F3" stroke-width="0.4104" stroke-miterlimit="10" d="M1549,343.1
		c0,0-140.7,210.9-364.9,210.9S899.6,164.7,616.6,164.7S274.9,412-105.5,412"/>
	<path opacity="0.4878" fill="none" stroke="#F3F3F3" stroke-width="0.4038" stroke-miterlimit="10" d="M1549,340.2
		c0,0-140.7,218-364.9,218S899.6,158.3,616.6,158.3S274.9,403.8-105.5,403.8"/>
	<path opacity="0.4634" fill="none" stroke="#F3F3F3" stroke-width="0.3972" stroke-miterlimit="10" d="M1549,337.2
		c0,0-140.7,225.2-364.9,225.2S899.6,151.8,616.6,151.8S274.9,395.7-105.5,395.7"/>
	<path opacity="0.439" fill="none" stroke="#F3F3F3" stroke-width="0.3906" stroke-miterlimit="10" d="M1549,334.2
		c0,0-140.7,232.3-364.9,232.3S899.6,145.3,616.6,145.3S274.9,387.5-105.5,387.5"/>
	<path opacity="0.4146" fill="none" stroke="#F3F3F3" stroke-width="0.384" stroke-miterlimit="10" d="M1549,331.3
		c0,0-140.7,239.5-364.9,239.5S899.6,138.9,616.6,138.9S274.9,379.4-105.5,379.4"/>
	<path opacity="0.3902" fill="none" stroke="#F3F3F3" stroke-width="0.3773" stroke-miterlimit="10" d="M1549,328.3
		c0,0-140.7,246.7-364.9,246.7S899.6,132.4,616.6,132.4S274.9,371.3-105.5,371.3"/>
	<path opacity="0.3659" fill="none" stroke="#F3F3F3" stroke-width="0.3707" stroke-miterlimit="10" d="M1549,325.3
		c0,0-140.7,253.8-364.9,253.8S899.6,126,616.6,126S274.9,363.1-105.5,363.1"/>
	<path opacity="0.3415" fill="none" stroke="#F3F3F3" stroke-width="0.3641" stroke-miterlimit="10" d="M1549,322.3
		c0,0-140.7,261-364.9,261S899.6,119.5,616.6,119.5S274.9,355-105.5,355"/>
	<path opacity="0.3171" fill="none" stroke="#F3F3F3" stroke-width="0.3575" stroke-miterlimit="10" d="M1549,319.4
		c0,0-140.7,268.2-364.9,268.2S899.6,113,616.6,113S274.9,346.8-105.5,346.8"/>
	<path opacity="0.2927" fill="none" stroke="#F3F3F3" stroke-width="0.3509" stroke-miterlimit="10" d="M1549,316.4
		c0,0-140.7,275.3-364.9,275.3S899.6,106.6,616.6,106.6S274.9,338.7-105.5,338.7"/>
	<path opacity="0.2683" fill="none" stroke="#F3F3F3" stroke-width="0.3442" stroke-miterlimit="10" d="M1549,313.4
		c0,0-140.7,282.5-364.9,282.5S899.6,100.1,616.6,100.1S274.9,330.5-105.5,330.5"/>
	<path opacity="0.2439" fill="none" stroke="#F3F3F3" stroke-width="0.3376" stroke-miterlimit="10" d="M1549,310.4
		c0,0-140.7,289.7-364.9,289.7S899.6,93.6,616.6,93.6S274.9,322.4-105.5,322.4"/>
	<path opacity="0.2195" fill="none" stroke="#F3F3F3" stroke-width="0.331" stroke-miterlimit="10" d="M1549,307.5
		c0,0-140.7,296.8-364.9,296.8S899.6,87.2,616.6,87.2S274.9,314.3-105.5,314.3"/>
	<path opacity="0.1951" fill="none" stroke="#F3F3F3" stroke-width="0.3244" stroke-miterlimit="10" d="M1549,304.5
		c0,0-140.7,304-364.9,304S899.6,80.7,616.6,80.7S274.9,306.1-105.5,306.1"/>
	<path opacity="0.1707" fill="none" stroke="#F3F3F3" stroke-width="0.3178" stroke-miterlimit="10" d="M1549,301.5
		c0,0-140.7,311.2-364.9,311.2S899.6,74.3,616.6,74.3S274.9,298-105.5,298"/>
	<path opacity="0.1463" fill="none" stroke="#F3F3F3" stroke-width="0.3111" stroke-miterlimit="10" d="M1549,298.6
		c0,0-140.7,318.3-364.9,318.3S899.6,67.8,616.6,67.8s-341.7,222-722.1,222"/>
	<path opacity="0.122" fill="none" stroke="#F3F3F3" stroke-width="0.3045" stroke-miterlimit="10" d="M1549,295.6
		c0,0-140.7,325.5-364.9,325.5S899.6,61.3,616.6,61.3S274.9,281.7-105.5,281.7"/>
	<path opacity="9.756097e-002" fill="none" stroke="#F3F3F3" stroke-width="0.2979" stroke-miterlimit="10" d="M1549,292.6
		c0,0-140.7,332.7-364.9,332.7S899.6,54.9,616.6,54.9S274.9,273.5-105.5,273.5"/>
	<path opacity="7.317073e-002" fill="none" stroke="#F3F3F3" stroke-width="0.2913" stroke-miterlimit="10" d="M1549,289.6
		c0,0-140.7,339.8-364.9,339.8s-284.5-581-567.5-581s-341.7,217-722.1,217"/>
	<path opacity="4.878049e-002" fill="none" stroke="#F3F3F3" stroke-width="0.2847" stroke-miterlimit="10" d="M1549,286.7
		c0,0-140.7,347-364.9,347S899.6,42,616.6,42S274.9,257.3-105.5,257.3"/>
	<path opacity="2.439024e-002" fill="none" stroke="#F3F3F3" stroke-width="0.278" stroke-miterlimit="10" d="M1549,283.7
		c0,0-140.7,354.1-364.9,354.1S899.6,35.5,616.6,35.5S274.9,249.1-105.5,249.1"/>
	<path id="XMLID_5_" opacity="0" fill="none" stroke="#F3F3F3" stroke-width="0.2714" stroke-miterlimit="10" d="M1549,280.7
		c0,0-140.7,361.3-364.9,361.3S899.6,29,616.6,29S274.9,241-105.5,241"/>
</g>
<g id="XMLID_663_" opacity="0.15">
	<path id="XMLID_4_" fill="none" stroke="#F3F3F3" stroke-width="0.5428" stroke-miterlimit="10" d="M-99.9,386.1
		c0,0,140.7,68.9,364.9,68.9c224.2,0,284.5-90.9,567.5-90.9s341.7,197.7,722.1,197.7"/>
	<path opacity="0.9756" fill="none" stroke="#F3F3F3" stroke-width="0.5362" stroke-miterlimit="10" d="M-99.9,383
		c0,0,147.7,76.3,371.9,76.3c224.2,0,277.6-103.9,560.5-103.9s341.7,198.1,722.1,198.1"/>
	<path opacity="0.9512" fill="none" stroke="#F3F3F3" stroke-width="0.5296" stroke-miterlimit="10" d="M-99.9,380
		c0,0,154.6,83.6,378.8,83.6c224.2,0,270.6-117,553.6-117s341.7,198.6,722.1,198.6"/>
	<path opacity="0.9268" fill="none" stroke="#F3F3F3" stroke-width="0.523" stroke-miterlimit="10" d="M-99.9,377
		c0,0,161.6,90.9,385.8,90.9c224.2,0,263.6-130,546.6-130s341.7,199.1,722.1,199.1"/>
	<path opacity="0.9024" fill="none" stroke="#F3F3F3" stroke-width="0.5164" stroke-miterlimit="10" d="M-99.9,373.9
		c0,0,168.5,98.2,392.7,98.2c224.2,0,256.7-143.1,539.6-143.1s341.7,199.5,722.1,199.5"/>
	<path opacity="0.878" fill="none" stroke="#F3F3F3" stroke-width="0.5097" stroke-miterlimit="10" d="M-99.9,370.9
		c0,0,175.5,105.5,399.7,105.5c224.2,0,249.7-156.1,532.7-156.1s341.7,200,722.1,200"/>
	<path opacity="0.8537" fill="none" stroke="#F3F3F3" stroke-width="0.5031" stroke-miterlimit="10" d="M-99.9,367.9
		c0,0,182.5,112.8,406.7,112.8c224.2,0,242.8-169.1,525.7-169.1s341.7,200.4,722.1,200.4"/>
	<path opacity="0.8293" fill="none" stroke="#F3F3F3" stroke-width="0.4965" stroke-miterlimit="10" d="M-99.9,364.8
		c0,0,189.4,120.1,413.6,120.1c224.2,0,235.8-182.2,518.8-182.2s341.7,200.9,722.1,200.9"/>
	<path opacity="0.8049" fill="none" stroke="#F3F3F3" stroke-width="0.4899" stroke-miterlimit="10" d="M-99.9,361.8
		c0,0,196.4,127.4,420.6,127.4c224.2,0,228.8-195.2,511.8-195.2s341.7,201.3,722.1,201.3"/>
	<path opacity="0.7805" fill="none" stroke="#F3F3F3" stroke-width="0.4833" stroke-miterlimit="10" d="M-99.9,358.8
		c0,0,203.3,134.7,427.5,134.7c224.2,0,221.9-208.3,504.9-208.3S1174.3,487,1554.6,487"/>
	<path opacity="0.7561" fill="none" stroke="#F3F3F3" stroke-width="0.4766" stroke-miterlimit="10" d="M-99.9,355.7
		c0,0,210.3,142.1,434.5,142.1c224.2,0,214.9-221.3,497.9-221.3s341.7,202.2,722.1,202.2"/>
	<path opacity="0.7317" fill="none" stroke="#F3F3F3" stroke-width="0.47" stroke-miterlimit="10" d="M-99.9,352.7
		c0,0,217.2,149.4,441.5,149.4c224.2,0,208-234.3,490.9-234.3s341.7,202.7,722.1,202.7"/>
	<path opacity="0.7073" fill="none" stroke="#F3F3F3" stroke-width="0.4634" stroke-miterlimit="10" d="M-99.9,349.7
		c0,0,224.2,156.7,448.4,156.7c224.2,0,201-247.4,484-247.4s341.7,203.1,722.1,203.1"/>
	<path opacity="0.6829" fill="none" stroke="#F3F3F3" stroke-width="0.4568" stroke-miterlimit="10" d="M-99.9,346.6
		c0,0,231.2,164,455.4,164c224.2,0,194.1-260.4,477-260.4s341.7,203.6,722.1,203.6"/>
	<path opacity="0.6585" fill="none" stroke="#F3F3F3" stroke-width="0.4502" stroke-miterlimit="10" d="M-99.9,343.6
		c0,0,238.1,171.3,462.3,171.3c224.2,0,187.1-273.5,470.1-273.5s341.7,204,722.1,204"/>
	<path opacity="0.6341" fill="none" stroke="#F3F3F3" stroke-width="0.4435" stroke-miterlimit="10" d="M-99.9,340.6
		c0,0,245.1,178.6,469.3,178.6c224.2,0,180.1-286.5,463.1-286.5s341.7,204.5,722.1,204.5"/>
	<path opacity="0.6098" fill="none" stroke="#F3F3F3" stroke-width="0.4369" stroke-miterlimit="10" d="M-99.9,337.5
		c0,0,252,185.9,476.2,185.9c224.2,0,173.2-299.5,456.1-299.5s341.7,204.9,722.1,204.9"/>
	<path opacity="0.5854" fill="none" stroke="#F3F3F3" stroke-width="0.4303" stroke-miterlimit="10" d="M-99.9,334.5
		c0,0,259,193.2,483.2,193.2c224.2,0,166.2-312.6,449.2-312.6s341.7,205.4,722.1,205.4"/>
	<path opacity="0.561" fill="none" stroke="#F3F3F3" stroke-width="0.4237" stroke-miterlimit="10" d="M-99.9,331.5
		c0,0,266,200.5,490.2,200.5c224.2,0,159.3-325.6,442.2-325.6s341.7,205.9,722.1,205.9"/>
	<path opacity="0.5366" fill="none" stroke="#F3F3F3" stroke-width="0.4171" stroke-miterlimit="10" d="M-99.9,328.4
		c0,0,272.9,207.9,497.1,207.9c224.2,0,152.3-338.7,435.3-338.7s341.7,206.3,722.1,206.3"/>
	<path opacity="0.5122" fill="none" stroke="#F3F3F3" stroke-width="0.4104" stroke-miterlimit="10" d="M-99.9,325.4
		c0,0,279.9,215.2,504.1,215.2c224.2,0,145.3-351.7,428.3-351.7s341.7,206.8,722.1,206.8"/>
	<path opacity="0.4878" fill="none" stroke="#F3F3F3" stroke-width="0.4038" stroke-miterlimit="10" d="M-99.9,322.4
		c0,0,286.8,222.5,511,222.5c224.2,0,138.4-364.7,421.4-364.7s341.7,207.2,722.1,207.2"/>
	<path opacity="0.4634" fill="none" stroke="#F3F3F3" stroke-width="0.3972" stroke-miterlimit="10" d="M-99.9,319.3
		c0,0,293.8,229.8,518,229.8c224.2,0,131.4-377.8,414.4-377.8S1174.3,379,1554.6,379"/>
	<path opacity="0.439" fill="none" stroke="#F3F3F3" stroke-width="0.3906" stroke-miterlimit="10" d="M-99.9,316.3
		c0,0,300.7,237.1,525,237.1c224.2,0,124.5-390.8,407.4-390.8s341.7,208.1,722.1,208.1"/>
	<path opacity="0.4146" fill="none" stroke="#F3F3F3" stroke-width="0.384" stroke-miterlimit="10" d="M-99.9,313.3
		c0,0,307.7,244.4,531.9,244.4c224.2,0,117.5-403.9,400.5-403.9s341.7,208.6,722.1,208.6"/>
	<path opacity="0.3902" fill="none" stroke="#F3F3F3" stroke-width="0.3773" stroke-miterlimit="10" d="M-99.9,310.2
		c0,0,314.7,251.7,538.9,251.7c224.2,0,110.6-416.9,393.5-416.9s341.7,209,722.1,209"/>
	<path opacity="0.3659" fill="none" stroke="#F3F3F3" stroke-width="0.3707" stroke-miterlimit="10" d="M-99.9,307.2
		c0,0,321.6,259,545.8,259c224.2,0,103.6-429.9,386.6-429.9s341.7,209.5,722.1,209.5"/>
	<path opacity="0.3415" fill="none" stroke="#F3F3F3" stroke-width="0.3641" stroke-miterlimit="10" d="M-99.9,304.2
		c0,0,328.6,266.3,552.8,266.3c224.2,0,96.6-443,379.6-443s341.7,209.9,722.1,209.9"/>
	<path opacity="0.3171" fill="none" stroke="#F3F3F3" stroke-width="0.3575" stroke-miterlimit="10" d="M-99.9,301.1
		c0,0,335.5,273.7,559.7,273.7c224.2,0,89.7-456,372.6-456s341.7,210.4,722.1,210.4"/>
	<path opacity="0.2927" fill="none" stroke="#F3F3F3" stroke-width="0.3509" stroke-miterlimit="10" d="M-99.9,298.1
		c0,0,342.5,281,566.7,281C691,579.1,549.6,110,832.5,110s341.7,210.8,722.1,210.8"/>
	<path opacity="0.2683" fill="none" stroke="#F3F3F3" stroke-width="0.3442" stroke-miterlimit="10" d="M-99.9,295.1
		c0,0,349.5,288.3,573.7,288.3c224.2,0,75.8-482.1,358.7-482.1s341.7,211.3,722.1,211.3"/>
	<path opacity="0.2439" fill="none" stroke="#F3F3F3" stroke-width="0.3376" stroke-miterlimit="10" d="M-99.9,292
		c0,0,356.4,295.6,580.6,295.6c224.2,0,68.8-495.1,351.8-495.1s341.7,211.7,722.1,211.7"/>
	<path opacity="0.2195" fill="none" stroke="#F3F3F3" stroke-width="0.331" stroke-miterlimit="10" d="M-99.9,289
		c0,0,363.4,302.9,587.6,302.9c224.2,0,61.9-508.2,344.8-508.2s341.7,212.2,722.1,212.2"/>
	<path opacity="0.1951" fill="none" stroke="#F3F3F3" stroke-width="0.3244" stroke-miterlimit="10" d="M-99.9,286
		c0,0,370.3,310.2,594.5,310.2C718.9,596.2,549.6,75,832.5,75s341.7,212.7,722.1,212.7"/>
	<path opacity="0.1707" fill="none" stroke="#F3F3F3" stroke-width="0.3178" stroke-miterlimit="10" d="M-99.9,282.9
		c0,0,377.3,317.5,601.5,317.5c224.2,0,47.9-534.3,330.9-534.3s341.7,213.1,722.1,213.1"/>
	<path opacity="0.1463" fill="none" stroke="#F3F3F3" stroke-width="0.3111" stroke-miterlimit="10" d="M-99.9,279.9
		c0,0,384.2,324.8,608.4,324.8c224.2,0,41-547.3,323.9-547.3S1174.3,271,1554.6,271"/>
	<path opacity="0.122" fill="none" stroke="#F3F3F3" stroke-width="0.3045" stroke-miterlimit="10" d="M-99.9,276.9
		c0,0,391.2,332.1,615.4,332.1c224.2,0,34-560.3,317-560.3s341.7,214,722.1,214"/>
	<path opacity="9.756097e-002" fill="none" stroke="#F3F3F3" stroke-width="0.2979" stroke-miterlimit="10" d="M-99.9,273.8
		c0,0,398.2,339.5,622.4,339.5c224.2,0,27.1-573.4,310-573.4s341.7,214.5,722.1,214.5"/>
	<path opacity="7.317073e-002" fill="none" stroke="#F3F3F3" stroke-width="0.2913" stroke-miterlimit="10" d="M-99.9,270.8
		c0,0,405.1,346.8,629.3,346.8c224.2,0,20.1-586.4,303.1-586.4s341.7,214.9,722.1,214.9"/>
	<path opacity="4.878049e-002" fill="none" stroke="#F3F3F3" stroke-width="0.2847" stroke-miterlimit="10" d="M-99.9,267.8
		c0,0,412.1,354.1,636.3,354.1c224.2,0,13.1-599.5,296.1-599.5s341.7,215.4,722.1,215.4"/>
	<path opacity="2.439024e-002" fill="none" stroke="#F3F3F3" stroke-width="0.278" stroke-miterlimit="10" d="M-99.9,264.7
		c0,0,419,361.4,643.2,361.4c224.2,0,6.2-612.5,289.1-612.5s341.7,215.8,722.1,215.8"/>
	<path id="XMLID_3_" opacity="0" fill="none" stroke="#F3F3F3" stroke-width="0.2714" stroke-miterlimit="10" d="M-99.9,261.7
		c0,0,426,368.7,650.2,368.7c224.2,0-0.8-625.5,282.2-625.5s341.7,216.3,722.1,216.3"/>
</g>
<g id="XMLID_616_" opacity="0.15">
	<path id="XMLID_2_" fill="none" stroke="#F3F3F3" stroke-width="0.5428" stroke-miterlimit="10" d="M1670.4,249.6
		c0,0-164.5-68.6-426.6-68.6c-262.1,0-332.6,90.5-663.5,90.5S180.7,74.6-264,74.6"/>
	<path opacity="0.9756" fill="none" stroke="#F3F3F3" stroke-width="0.5368" stroke-miterlimit="10" d="M1670.4,252.6
		c0,0-172.6-75.9-434.8-75.9c-262.1,0-324.5,103.5-655.3,103.5S180.7,82.9-264,82.9"/>
	<path opacity="0.9512" fill="none" stroke="#F3F3F3" stroke-width="0.5307" stroke-miterlimit="10" d="M1670.4,255.6
		c0,0-180.8-83.2-442.9-83.2c-262.1,0-316.4,116.5-647.2,116.5S180.7,91.2-264,91.2"/>
	<path opacity="0.9268" fill="none" stroke="#F3F3F3" stroke-width="0.5246" stroke-miterlimit="10" d="M1670.4,258.6
		c0,0-188.9-90.5-451-90.5c-262.1,0-308.2,129.4-639.1,129.4S180.7,99.4-264,99.4"/>
	<path opacity="0.9024" fill="none" stroke="#F3F3F3" stroke-width="0.5185" stroke-miterlimit="10" d="M1670.4,261.7
		c0,0-197.1-97.7-459.2-97.7c-262.1,0-300.1,142.4-630.9,142.4S180.7,107.7-264,107.7"/>
	<path opacity="0.878" fill="none" stroke="#F3F3F3" stroke-width="0.5124" stroke-miterlimit="10" d="M1670.4,264.7
		c0,0-205.2-105-467.3-105c-262.1,0-292,155.4-622.8,155.4S180.7,116-264,116"/>
	<path opacity="0.8537" fill="none" stroke="#F3F3F3" stroke-width="0.5063" stroke-miterlimit="10" d="M1670.4,267.7
		c0,0-213.3-112.3-475.5-112.3c-262.1,0-283.8,168.4-614.7,168.4S180.7,124.3-264,124.3"/>
	<path opacity="0.8293" fill="none" stroke="#F3F3F3" stroke-width="0.5003" stroke-miterlimit="10" d="M1670.4,270.7
		c0,0-221.5-119.6-483.6-119.6c-262.1,0-275.7,181.4-606.5,181.4s-399.5-200-844.2-200"/>
	<path opacity="0.8049" fill="none" stroke="#F3F3F3" stroke-width="0.4942" stroke-miterlimit="10" d="M1670.4,273.7
		c0,0-229.6-126.9-491.7-126.9c-262.1,0-267.6,194.3-598.4,194.3S180.7,140.8-264,140.8"/>
	<path opacity="0.7805" fill="none" stroke="#F3F3F3" stroke-width="0.4881" stroke-miterlimit="10" d="M1670.4,276.7
		c0,0-237.7-134.1-499.9-134.1S911.1,349.9,580.3,349.9S180.7,149.1-264,149.1"/>
	<path opacity="0.7561" fill="none" stroke="#F3F3F3" stroke-width="0.482" stroke-miterlimit="10" d="M1670.4,279.8
		c0,0-245.9-141.4-508-141.4c-262.1,0-251.3,220.3-582.1,220.3S180.7,157.3-264,157.3"/>
	<path opacity="0.7317" fill="none" stroke="#F3F3F3" stroke-width="0.4759" stroke-miterlimit="10" d="M1670.4,282.8
		c0,0-254-148.7-516.1-148.7c-262.1,0-243.2,233.3-574,233.3S180.7,165.6-264,165.6"/>
	<path opacity="0.7073" fill="none" stroke="#F3F3F3" stroke-width="0.4699" stroke-miterlimit="10" d="M1670.4,285.8
		c0,0-262.1-156-524.3-156s-235,246.3-565.8,246.3S180.7,173.9-264,173.9"/>
	<path opacity="0.6829" fill="none" stroke="#F3F3F3" stroke-width="0.4638" stroke-miterlimit="10" d="M1670.4,288.8
		c0,0-270.3-163.2-532.4-163.2S911.1,384.8,580.3,384.8S180.7,182.2-264,182.2"/>
	<path opacity="0.6585" fill="none" stroke="#F3F3F3" stroke-width="0.4577" stroke-miterlimit="10" d="M1670.4,291.8
		c0,0-278.4-170.5-540.5-170.5c-262.1,0-218.7,272.2-549.6,272.2S180.7,190.4-264,190.4"/>
	<path opacity="0.6341" fill="none" stroke="#F3F3F3" stroke-width="0.4516" stroke-miterlimit="10" d="M1670.4,294.9
		c0,0-286.5-177.8-548.7-177.8S911.1,402.3,580.3,402.3S180.7,198.7-264,198.7"/>
	<path opacity="0.6098" fill="none" stroke="#F3F3F3" stroke-width="0.4455" stroke-miterlimit="10" d="M1670.4,297.9
		c0,0-294.7-185.1-556.8-185.1S911.1,411,580.3,411S180.7,207-264,207"/>
	<path opacity="0.5854" fill="none" stroke="#F3F3F3" stroke-width="0.4394" stroke-miterlimit="10" d="M1670.4,300.9
		c0,0-302.8-192.4-564.9-192.4S911.1,419.7,580.3,419.7S180.7,215.2-264,215.2"/>
	<path opacity="0.561" fill="none" stroke="#F3F3F3" stroke-width="0.4334" stroke-miterlimit="10" d="M1670.4,303.9
		c0,0-310.9-199.6-573.1-199.6c-262.1,0-186.2,324.2-517,324.2S180.7,223.5-264,223.5"/>
	<path opacity="0.5366" fill="none" stroke="#F3F3F3" stroke-width="0.4273" stroke-miterlimit="10" d="M1670.4,306.9
		c0,0-319.1-206.9-581.2-206.9S911.1,437.2,580.3,437.2S180.7,231.8-264,231.8"/>
	<path opacity="0.5122" fill="none" stroke="#F3F3F3" stroke-width="0.4212" stroke-miterlimit="10" d="M1670.4,310
		c0,0-327.2-214.2-589.3-214.2S911.1,445.9,580.3,445.9S180.7,240.1-264,240.1"/>
	<path opacity="0.4878" fill="none" stroke="#F3F3F3" stroke-width="0.4151" stroke-miterlimit="10" d="M1670.4,313
		c0,0-335.3-221.5-597.5-221.5S911.1,454.6,580.3,454.6S180.7,248.3-264,248.3"/>
	<path opacity="0.4634" fill="none" stroke="#F3F3F3" stroke-width="0.409" stroke-miterlimit="10" d="M1670.4,316
		c0,0-343.5-228.8-605.6-228.8S911.1,463.3,580.3,463.3S180.7,256.6-264,256.6"/>
	<path opacity="0.439" fill="none" stroke="#F3F3F3" stroke-width="0.403" stroke-miterlimit="10" d="M1670.4,319
		c0,0-351.6-236-613.8-236S911.1,472.1,580.3,472.1S180.7,264.9-264,264.9"/>
	<path opacity="0.4146" fill="none" stroke="#F3F3F3" stroke-width="0.3969" stroke-miterlimit="10" d="M1670.4,322
		c0,0-359.8-243.3-621.9-243.3s-137.4,402-468.2,402S180.7,273.1-264,273.1"/>
	<path opacity="0.3902" fill="none" stroke="#F3F3F3" stroke-width="0.3908" stroke-miterlimit="10" d="M1670.4,325.1
		c0,0-367.9-250.6-630-250.6s-129.3,415-460.1,415S180.7,281.4-264,281.4"/>
	<path opacity="0.3659" fill="none" stroke="#F3F3F3" stroke-width="0.3847" stroke-miterlimit="10" d="M1670.4,328.1
		c0,0-376-257.9-638.2-257.9s-121.1,428-452,428S180.7,289.7-264,289.7"/>
	<path opacity="0.3415" fill="none" stroke="#F3F3F3" stroke-width="0.3786" stroke-miterlimit="10" d="M1670.4,331.1
		c0,0-384.2-265.1-646.3-265.1s-113,441-443.8,441S180.7,298-264,298"/>
	<path opacity="0.3171" fill="none" stroke="#F3F3F3" stroke-width="0.3725" stroke-miterlimit="10" d="M1670.4,334.1
		c0,0-392.3-272.4-654.4-272.4s-104.9,454-435.7,454S180.7,306.2-264,306.2"/>
	<path opacity="0.2927" fill="none" stroke="#F3F3F3" stroke-width="0.3665" stroke-miterlimit="10" d="M1670.4,337.1
		c0,0-400.4-279.7-662.6-279.7s-96.7,466.9-427.5,466.9S180.7,314.5-264,314.5"/>
	<path opacity="0.2683" fill="none" stroke="#F3F3F3" stroke-width="0.3604" stroke-miterlimit="10" d="M1670.4,340.2
		c0,0-408.6-287-670.7-287s-88.6,479.9-419.4,479.9S180.7,322.8-264,322.8"/>
	<path opacity="0.2439" fill="none" stroke="#F3F3F3" stroke-width="0.3543" stroke-miterlimit="10" d="M1670.4,343.2
		c0,0-416.7-294.3-678.8-294.3s-80.4,492.9-411.3,492.9S180.7,331-264,331"/>
	<path opacity="0.2195" fill="none" stroke="#F3F3F3" stroke-width="0.3482" stroke-miterlimit="10" d="M1670.4,346.2
		c0,0-424.8-301.5-687-301.5s-72.3,505.9-403.1,505.9S180.7,339.3-264,339.3"/>
	<path opacity="0.1951" fill="none" stroke="#F3F3F3" stroke-width="0.3421" stroke-miterlimit="10" d="M1670.4,349.2
		c0,0-433-308.8-695.1-308.8s-64.2,518.9-395,518.9S180.7,347.6-264,347.6"/>
	<path opacity="0.1707" fill="none" stroke="#F3F3F3" stroke-width="0.3361" stroke-miterlimit="10" d="M1670.4,352.2
		c0,0-441.1-316.1-703.2-316.1S911.1,568,580.3,568S180.7,355.8-264,355.8"/>
	<path opacity="0.1463" fill="none" stroke="#F3F3F3" stroke-width="0.33" stroke-miterlimit="10" d="M1670.4,355.3
		c0,0-449.2-323.4-711.4-323.4s-47.9,544.8-378.7,544.8S180.7,364.1-264,364.1"/>
	<path opacity="0.122" fill="none" stroke="#F3F3F3" stroke-width="0.3239" stroke-miterlimit="10" d="M1670.4,358.3
		c0,0-457.4-330.6-719.5-330.6s-39.8,557.8-370.6,557.8S180.7,372.4-264,372.4"/>
	<path opacity="9.756097e-002" fill="none" stroke="#F3F3F3" stroke-width="0.3178" stroke-miterlimit="10" d="M1670.4,361.3
		c0,0-465.5-337.9-727.6-337.9s-31.6,570.8-362.5,570.8S180.7,380.7-264,380.7"/>
	<path opacity="7.317073e-002" fill="none" stroke="#F3F3F3" stroke-width="0.3117" stroke-miterlimit="10" d="M1670.4,364.3
		c0,0-473.6-345.2-735.8-345.2s-23.5,583.8-354.3,583.8s-399.5-214-844.2-214"/>
	<path opacity="4.878049e-002" fill="none" stroke="#F3F3F3" stroke-width="0.3056" stroke-miterlimit="10" d="M1670.4,367.3
		c0,0-481.8-352.5-743.9-352.5s-15.4,596.8-346.2,596.8S180.7,397.2-264,397.2"/>
	<path opacity="2.439024e-002" fill="none" stroke="#F3F3F3" stroke-width="0.2996" stroke-miterlimit="10" d="M1670.4,370.4
		c0,0-489.9-359.8-752.1-359.8s-7.2,609.7-338.1,609.7S180.7,405.5-264,405.5"/>
	<path id="XMLID_1_" opacity="0" fill="none" stroke="#F3F3F3" stroke-width="0.2935" stroke-miterlimit="10" d="M1670.4,373.4
		c0,0-498.1-367-760.2-367s0.9,622.7-329.9,622.7S180.7,413.7-264,413.7"/>
</g>
</svg>
